<?xml version="1.0" encoding="utf-8"?>
<!-- Generator: Adobe Illustrator 21.0.2, SVG Export Plug-In . SVG Version: 6.00 Build 0)  -->
<svg version="1.1" id="Layer_1" xmlns="http://www.w3.org/2000/svg" xmlns:xlink="http://www.w3.org/1999/xlink" x="0px" y="0px"
	 viewBox="0 0 168.8 178.3" style="enable-background:new 0 0 168.8 178.3;" xml:space="preserve">
<path d="M118.6,126.9c-2.6-11.1-7.1-21.6-11.8-31.9C100.1,80.5,93.3,66.2,86.3,52c-5.6-11.2-8.4-22.7-7.2-35.2
	c0.5-4.7,1.1-9.4,1.6-14.1c0-0.1,0-0.5,0.1-0.6c0-2.2-0.6-2.5-2.1-2c-0.8,0.3-2.5,1.4-3.1,1.9c-7.6,5.8-14.3,12.6-19.7,20.6
	c-3.2,4.6-5.9,9.5-6.4,15.2c-0.5,5.6,0.9,10.9,2.5,16.1c4.2,13.8,10.5,26.8,16.7,39.8c5.5,11.7,11.1,23.5,16.5,35.2
	c3.4,7.3,5.4,15,3.9,23.1c-1.1,5.9-2.7,11.8-4.2,17.7c-0.6,2.3-1.3,4.5-1.8,6.2c0,2.2,0.7,2.7,2.1,2c1.1-0.6,2.2-1.2,3.2-2
	c11-9,20.2-19.5,27.7-31.6C119.4,138.8,120.1,133.1,118.6,126.9z"/>
<path d="M54.6,118.5c-2.1-8.8-5.6-17-9.3-25.2C40,82,34.7,70.7,29.1,59.5c-4.4-8.8-6.7-17.9-5.7-27.7c0.4-3.7,0.9-7.4,1.3-11.1
	c0-0.1,0-0.4,0-0.5c0-1.8-0.5-2-1.6-1.6c-0.6,0.2-2,1.1-2.5,1.5c-6,4.6-11.2,10-15.5,16.2c-2.5,3.6-4.6,7.5-5,12
	c-0.4,4.4,0.7,8.6,2,12.7C5.4,72,10.3,82.2,15.2,92.4c4.4,9.2,8.7,18.5,13,27.8c2.7,5.8,4.2,11.8,3.1,18.2
	c-0.9,4.7-2.2,9.3-3.3,13.9c-0.4,1.8-1,3.6-1.4,4.9c0,1.8,0.6,2.1,1.6,1.6c0.9-0.4,1.8-1,2.5-1.6c8.6-7.1,15.9-15.4,21.8-24.9
	C55.2,127.9,55.7,123.4,54.6,118.5z"/>
<path d="M168.2,118.9c-2.1-8.8-5.6-17-9.3-25.2c-5.2-11.3-10.6-22.6-16.1-33.8c-4.4-8.8-6.7-17.9-5.7-27.7c0.4-3.7,0.9-7.4,1.3-11.1
	c0-0.1,0-0.4,0-0.5c0-1.8-0.5-2-1.6-1.6c-0.6,0.2-2,1.1-2.5,1.5c-6,4.6-11.2,10-15.5,16.2c-2.5,3.6-4.6,7.5-5,12
	c-0.4,4.4,0.7,8.6,2,12.7c3.3,10.9,8.3,21.1,13.1,31.4c4.4,9.2,8.7,18.5,13,27.8c2.7,5.8,4.2,11.8,3.1,18.2
	c-0.9,4.7-2.1,9.3-3.3,13.9c-0.4,1.8-1,3.6-1.4,4.9c0,1.8,0.6,2.1,1.6,1.6c0.9-0.4,1.8-1,2.5-1.6c8.6-7.1,15.9-15.4,21.8-24.9
	C168.9,128.3,169.4,123.8,168.2,118.9z"/>
</svg>
